<svg id="Layer_1" enable-background="new 0 0 512.129 512.129" height="512" viewBox="0 0 512.129 512.129" width="512" xmlns="http://www.w3.org/2000/svg"><g><g><g><path d="m380.028 455.08c-6.28 0-12.131-3.974-14.228-10.258-2.621-7.859 1.625-16.354 9.484-18.976 14.844-4.951 28.027-13.118 39.184-24.274 9.132-9.132 16.314-19.723 21.346-31.477 3.26-7.616 12.077-11.147 19.693-7.886 7.616 3.26 11.146 12.077 7.886 19.692-6.542 15.282-15.866 29.037-27.712 40.883-14.478 14.479-31.605 25.083-50.906 31.521-1.573.526-3.174.775-4.747.775z" fill="#f1e1db"/></g><g><path d="m407.053 503.752c-6.154 0-11.924-3.815-14.121-9.941-2.796-7.799 1.26-16.387 9.058-19.183 19.496-6.989 36.872-18.023 51.644-32.796 12.701-12.701 22.695-27.432 29.704-43.78 3.264-7.615 12.082-11.14 19.697-7.876 7.614 3.264 11.141 12.082 7.876 19.696-8.519 19.872-20.653 37.762-36.064 53.173-17.928 17.929-39.034 31.327-62.732 39.823-1.673.6-3.382.884-5.062.884z" fill="#e0d2cd"/></g></g><g><path d="m246.98 203.55 155.777-155.776c14.764-14.764 38.701-14.764 53.465 0l.712.712c14.787 14.787 14.76 38.77-.059 53.524l-156.113 155.556" fill="#ffb366"/><path d="m300.828 257.632 145.863-145.446c14.774-14.704 38.662-14.676 53.401.063l.58.58c14.789 14.789 14.76 38.775-.064 53.528l-145.801 145.254" fill="#e68a2e"/><path d="m495.97 277.779c14.792-14.759 14.805-38.719.029-53.494-14.71-14.71-38.541-14.771-53.327-.137l-66.104 65.864c-10.131 10.094-26.523 10.079-36.636-.033l-89.689-89.689 127.228-127.23c14.764-14.764 14.764-38.701 0-53.465l-.456-.456c-14.764-14.764-38.701-14.764-53.465 0l-156.077 156.078c-9.073 9.073-24.344.502-21.324-11.969l21.523-88.88c5.141-21.228-6.488-42.93-27.01-50.407-24.257-8.838-50.768 5.593-56.514 30.762l-2.485 10.885c-12.696 55.62-33.336 109.007-59.876 159.508-37.764 71.86-26.435 162.783 33.986 223.204 74.434 74.434 195.14 74.354 269.476-.179l41.79-41.901z" fill="#fc9"/><path d="m377.504 19.562-.456-.456c-14.764-14.764-38.701-14.764-53.465 0l-127.228 127.229 53.921 53.921 127.228-127.229c14.764-14.764 14.764-38.701 0-53.465z" fill="#fc9"/><path d="m456.934 48.486-.356-.356-182.568 182.568 26.752 26.868 156.113-155.556c14.82-14.754 14.846-38.737.059-53.524z" fill="#ffa64d"/><path d="m495.995 224.289c-14.71-14.71-38.541-14.771-53.327-.137l-66.104 65.864c-10.131 10.094-26.523 10.08-36.636-.033l-62.601-62.601-221.247 221.245c74.459 74.126 194.932 73.948 269.165-.482l41.79-41.901 128.93-128.461c14.792-14.759 14.805-38.719.03-53.494z" fill="#ffbf80"/></g></g></svg>